<svg xmlns="http://www.w3.org/2000/svg" version="1.1" xmlns:xlink="http://www.w3.org/1999/xlink" xmlns:svgjs="http://svgjs.dev/svgjs" width="2000" height="1500" viewBox="0 0 2000 1500"><rect width="2000" height="1500" fill="#ffffff"></rect><g transform="matrix(0.75,0,0,0.75,249.090909090909,282.7536437246963)"><svg viewBox="0 0 396 247" data-background-color="#ffffff" preserveAspectRatio="xMidYMid meet" height="1247" width="2000" xmlns="http://www.w3.org/2000/svg" xmlns:xlink="http://www.w3.org/1999/xlink"><g id="tight-bounds" transform="matrix(1,0,0,1,0.2400000000000091,-0.09999999999999432)"><svg viewBox="0 0 395.52 247.2" height="247.2" width="395.52"><g><svg></svg></g><g><svg viewBox="0 0 395.52 247.2" height="247.2" width="395.52"><g transform="matrix(1,0,0,1,75.54432000000001,104.25558943396226)"><svg viewBox="0 0 244.43135999999996 38.68882113207547" height="38.68882113207547" width="244.43135999999996"><g><svg viewBox="0 0 244.43135999999996 38.68882113207547" height="38.68882113207547" width="244.43135999999996"><g><svg viewBox="0 0 244.43136 38.688821132075475" height="38.68882113207547" width="244.43135999999996"><g><svg viewBox="0 0 244.43136 38.688821132075475" height="38.688821132075475" width="244.43136"><g id="textblocktransform"><svg viewBox="0 0 244.43136 38.688821132075475" height="38.688821132075475" width="244.43136" id="textblock"><g><svg viewBox="0 0 244.43136 38.688821132075475" height="38.688821132075475" width="244.43136"><g transform="matrix(1,0,0,1,0,0)"><svg width="244.43136" viewBox="0.05 -37.5 238.48 37.75" height="38.688821132075475" data-palette-color="#3d3839"><path d="M10.35 0L0.05-26.55 6.05-26.55 13.45-5.3 20.75-26.55 26.5-26.55 16.3 0 10.35 0ZM30.5 0L30.5-26.55 36.2-26.55 36.2 0 30.5 0ZM33.35-37.5L33.35-37.5Q34.8-37.5 35.75-36.55 36.7-35.6 36.7-34.15L36.7-34.15Q36.7-32.75 35.75-31.78 34.8-30.8 33.35-30.8L33.35-30.8Q31.95-30.8 30.97-31.78 30-32.75 30-34.15L30-34.15Q30-35.6 30.97-36.55 31.95-37.5 33.35-37.5ZM61.95-24.15L59.84-20.1Q58.09-21.15 56.02-21.78 53.95-22.4 52.2-22.4L52.2-22.4Q50.5-22.4 49.4-21.75 48.3-21.1 48.3-19.6L48.3-19.6Q48.3-18.35 49.32-17.63 50.34-16.9 51.95-16.4 53.55-15.9 55.34-15.35 57.14-14.8 58.77-13.93 60.4-13.05 61.4-11.55 62.4-10.05 62.4-7.6L62.4-7.6Q62.4-4.9 60.97-3.18 59.55-1.45 57.22-0.63 54.9 0.2 52.2 0.2L52.2 0.2Q49.3 0.2 46.4-0.75 43.49-1.7 41.49-3.5L41.49-3.5 43.55-7.4Q45.3-5.85 47.8-4.98 50.3-4.1 52.45-4.1L52.45-4.1Q53.7-4.1 54.67-4.42 55.65-4.75 56.22-5.4 56.8-6.05 56.8-7.1L56.8-7.1Q56.8-8.5 55.8-9.3 54.8-10.1 53.2-10.63 51.59-11.15 49.8-11.68 48-12.2 46.42-13.05 44.84-13.9 43.84-15.35 42.84-16.8 42.84-19.2L42.84-19.2Q42.84-21.9 44.24-23.58 45.65-25.25 47.87-26.03 50.09-26.8 52.65-26.8L52.65-26.8Q55.15-26.8 57.64-26.1 60.15-25.4 61.95-24.15L61.95-24.15ZM68.19 0L68.19-26.55 73.89-26.55 73.89 0 68.19 0ZM71.04-37.5L71.04-37.5Q72.49-37.5 73.44-36.55 74.39-35.6 74.39-34.15L74.39-34.15Q74.39-32.75 73.44-31.78 72.49-30.8 71.04-30.8L71.04-30.8Q69.64-30.8 68.67-31.78 67.69-32.75 67.69-34.15L67.69-34.15Q67.69-35.6 68.67-36.55 69.64-37.5 71.04-37.5ZM93.79-26.75L93.79-26.75Q97.89-26.75 101.02-25.05 104.14-23.35 105.89-20.33 107.64-17.3 107.64-13.3L107.64-13.3Q107.64-9.3 105.89-6.25 104.14-3.2 101.02-1.5 97.89 0.2 93.79 0.2L93.79 0.2Q89.69 0.2 86.54-1.5 83.39-3.2 81.64-6.25 79.89-9.3 79.89-13.3L79.89-13.3Q79.89-17.3 81.64-20.33 83.39-23.35 86.54-25.05 89.69-26.75 93.79-26.75ZM93.79-22.1L93.79-22.1Q91.39-22.1 89.54-20.98 87.69-19.85 86.67-17.85 85.64-15.85 85.64-13.25L85.64-13.25Q85.64-10.6 86.67-8.6 87.69-6.6 89.54-5.48 91.39-4.35 93.79-4.35L93.79-4.35Q96.19-4.35 98.02-5.48 99.84-6.6 100.87-8.6 101.89-10.6 101.89-13.25L101.89-13.25Q101.89-15.85 100.87-17.85 99.84-19.85 98.02-20.98 96.19-22.1 93.79-22.1ZM133.34 0L133.34-15Q133.34-18.1 131.64-19.88 129.94-21.65 126.94-21.65L126.94-21.65Q123.39-21.6 121.36-19.15 119.34-16.7 119.34-13.05L119.34-13.05 117.74-13.05Q117.74-18 119.14-21 120.54-24 123.11-25.38 125.69-26.75 129.19-26.75L129.19-26.75Q132.29-26.75 134.51-25.5 136.74-24.25 137.91-21.98 139.09-19.7 139.09-16.5L139.09-16.5 139.09 0 133.34 0ZM113.64 0L113.64-26.55 119.39-26.55 119.39 0 113.64 0ZM182.18-22.65L179.03-18.95Q177.63-20.4 175.73-21.2 173.83-22 171.43-22L171.43-22Q169.13-22 167.33-20.9 165.53-19.8 164.53-17.82 163.53-15.85 163.53-13.25L163.53-13.25Q163.53-10.65 164.53-8.68 165.53-6.7 167.33-5.58 169.13-4.45 171.43-4.45L171.43-4.45Q173.93-4.45 175.93-5.28 177.93-6.1 179.28-7.7L179.28-7.7 182.48-4.55Q180.68-2.3 177.81-1.05 174.93 0.2 171.18 0.2L171.18 0.2Q167.23 0.2 164.21-1.5 161.18-3.2 159.48-6.23 157.78-9.25 157.78-13.25L157.78-13.25Q157.78-17.25 159.48-20.28 161.18-23.3 164.21-25.03 167.23-26.75 171.18-26.75L171.18-26.75Q174.78-26.75 177.56-25.68 180.33-24.6 182.18-22.65L182.18-22.65ZM205.13-11.85L197.18-11.85Q194.38-11.85 193.03-11 191.68-10.15 191.68-8.2L191.68-8.2Q191.68-6.35 193.06-5.25 194.43-4.15 196.83-4.15L196.83-4.15Q198.98-4.15 200.68-4.9 202.38-5.65 203.38-6.93 204.38-8.2 204.43-9.8L204.43-9.8 205.53-4.95Q204.28-2.35 201.73-1.05 199.18 0.25 195.63 0.25L195.63 0.25Q192.78 0.25 190.68-0.85 188.58-1.95 187.43-3.83 186.28-5.7 186.28-8L186.28-8Q186.28-11.6 188.91-13.75 191.53-15.9 196.33-15.95L196.33-15.95 205.13-15.95 205.13-11.85ZM204.43 0L204.38-16.85Q204.38-19.45 202.78-20.9 201.18-22.35 198.03-22.35L198.03-22.35Q196.13-22.35 194.16-21.65 192.18-20.95 190.18-19.6L190.18-19.6 187.83-23.3Q189.68-24.45 191.33-25.2 192.98-25.95 194.86-26.35 196.73-26.75 199.28-26.75L199.28-26.75Q204.43-26.75 207.21-24.28 209.98-21.8 210.03-17.45L210.03-17.45 210.08 0 204.43 0ZM218.03 0L218.03-37.1 223.78-37.1 223.78 0 218.03 0ZM232.78 0L232.78-37.1 238.53-37.1 238.53 0 232.78 0Z" opacity="1" transform="matrix(1,0,0,1,0,0)" fill="#000000" class="wordmark-text-0" data-fill-palette-color="primary" id="text-0"></path></svg></g></svg></g></svg></g></svg></g></svg></g></svg></g></svg></g><path d="M182.556 98.256L182.556 35.689 6.734 35.689 6.734 211.511 182.556 211.511 182.556 148.944 179.067 148.944 179.067 208.022 10.223 208.022 10.223 39.178 179.067 39.178 179.067 98.256Z" fill="#000000" stroke="transparent" data-fill-palette-color="tertiary"></path></svg></g><defs></defs></svg><rect width="395.52" height="247.2" fill="none" stroke="none" visibility="hidden"></rect></g></svg></g></svg>